<?xml version="1.0" encoding="utf-8"?>
<!-- Generator: Adobe Illustrator 19.0.0, SVG Export Plug-In . SVG Version: 6.00 Build 0)  -->
<svg version="1.1" xmlns="http://www.w3.org/2000/svg" xmlns:xlink="http://www.w3.org/1999/xlink" x="0px" y="0px"
	 viewBox="0 0 900 900" style="enable-background:new 0 0 900 900;" xml:space="preserve">
<style type="text/css">
	.st0{fill-rule:evenodd;clip-rule:evenodd;fill:#15A34A;}
</style>
<g id="New_Layer">
	<g>
		<path class="st0" d="M646.3-522.9c-1.6,1.6-1.7,5-0.2,8.2c0.9,2.1,0.4,3-5.8,9.3c-18,18.5-27.9,53.5-25.3,89.4
			c1.4,18.5,3.2,25.2,6.2,22.2c0.9-0.9,0.8-4.2-0.2-14.1c-3-29.9,1.4-58.1,12-76.5c3.8-6.7,11.4-15.2,14.1-15.9
			c1.9-0.5,2.1-0.3,1.5,2.4c-0.3,1.6-0.1,4.1,0.5,5.6c0.8,2.3,1.2,2.4,2.3,1.2c1.6-1.7,6.6-16.5,6.6-19.6c0-1.3-2.2-4.6-5.2-7.8
			C648.5-523,647.3-523.9,646.3-522.9z"/>
		<path class="st0" d="M185-445v67h14h14v-26.5V-431h5.3h5.2l9.9,26.5l9.9,26.5h13.9c7.6,0,13.8-0.1,13.8-0.3c0-0.2-5.8-16-13-35.1
			c-7.1-19.1-13-35.8-13-37.1s4.3-14,9.6-28.2c5.3-14.2,10.2-27.5,11-29.6l1.3-3.7h-12.3h-12.4l-10.5,28.2l-10.5,28.3l-4.1,0.3
			l-4.1,0.3l-0.2-28.3l-0.3-28.3l-13.7-0.3l-13.8-0.3V-445z"/>
		<path class="st0" d="M282-445v67h13.5H309v-40.8c0-30.4,0.3-41.1,1.2-42c0.7-0.7,4.4-1.2,9.5-1.2c7.1,0,8.4,0.3,9.3,1.9
			c0.6,1.3,1,16.3,1,42v40.1h13h13v-40.8c0-44.2-0.3-46.9-5.4-53.6c-3.7-4.9-9.9-7.5-19.2-8.2c-6.8-0.6-8.9-0.3-15.1,1.9l-7.3,2.5
			v-17.9V-512h-13.5H282V-445z"/>
		<path class="st0" d="M580-494c0,9.9-0.3,18-0.7,18c-0.4,0-2.6-1-5-2.1c-9.1-4.4-24.6-3.4-32.2,2.1c-8.9,6.5-10.6,15.9-9.8,54.5
			c0.5,29.2,1.2,32.6,7.4,38.8c4.4,4.5,10.8,6.7,19.3,6.7c8.3,0,14.7-1.9,20.2-5.9l4.3-3.2l0.3,3.6l0.3,3.5h11.5H607v-67v-67h-13.5
			H580V-494z M578.8-460.8c0.9,0.9,1.2,9.4,1.2,31.9c0,16.9-0.3,31.4-0.6,32.3c-0.5,1.3-2.3,1.6-9.3,1.6c-5.4,0-9.2-0.5-9.9-1.2
			c-0.9-0.9-1.2-9.4-1.2-32.3s0.3-31.4,1.2-32.3c0.7-0.7,4.3-1.2,9.3-1.2S578.1-461.5,578.8-460.8z"/>
		<path class="st0" d="M668.2-499.8c-1.4,1.4-1.5,4.7-0.3,6.6c0.4,0.7,3.2,2.4,6,3.8c11.5,5.3,22.4,21.6,27.1,40.4
			c2.7,10.9,4.3,27.7,3.5,35.8c-0.7,6.2-0.7,6.3-2.6,4.6c-2.4-2.2-4.2-0.7-4.1,3.3c0.1,2.4,4.3,15,5.9,17.6
			c0.9,1.4,11.3-9.5,11.3-11.8c0-3.2-1.5-4.8-3.8-4.1c-1.9,0.6-1.9,0.3-1.4-10.3c1.2-26.1-6.3-53.8-19.2-70.8
			C683.5-494.1,670.9-502.5,668.2-499.8z"/>
		<path class="st0" d="M393.9-479.7c-6.2,1.8-10.4,5-13.6,10.5l-2.8,4.7v36c0,35,0.1,36.1,2.2,40c2.9,5.4,6.9,8.9,12.4,10.9
			c3.9,1.5,7.6,1.7,23.6,1.4l19-0.3l4.9-3c3.7-2.4,5.6-4.5,7.9-9l3-5.9v-33c0-37-0.5-40.3-6.8-46.4c-5.9-5.7-9.4-6.6-28.2-6.9
			C404-480.9,397-480.6,393.9-479.7z M422.1-464c1.8,1,1.9,2.5,1.9,35.3c0,25.4-0.3,34.6-1.2,35.5c-0.7,0.7-4.4,1.2-9.5,1.2
			c-7.1,0-8.4-0.3-9.3-1.9c-0.6-1.3-1-14.1-1-35c0-28.6,0.2-33.2,1.6-34.5C406.4-465.3,418.9-465.7,422.1-464z"/>
		<path class="st0" d="M508.5-479.5c-2.4,0.8-5.7,3.3-8.1,5.9c-2.2,2.5-4.3,4.6-4.7,4.6c-0.4,0-0.7-2.3-0.7-5v-5h-12h-12v50.5v50.5
			h13.5H498v-36.9v-37l2.2-1.5c1.6-1.1,4.6-1.6,10.5-1.6h8.3v-13v-13h-3.2C514-480.9,510.7-480.3,508.5-479.5z"/>
		<path class="st0" d="M626.2-443.8c-1.3,1.3-1.6,7.5-0.6,10.2c0.8,2,3.3,2.1,4,0.1c0.9-2.2,3-1.9,7.2,1c5.4,3.7,18.2,7.5,25.2,7.5
			c11.8,0,23.7-4.2,32.6-11.5c5.4-4.5,7.1-7.3,4.9-8.1c-0.9-0.4-3,0.7-5.4,2.9c-5.3,4.8-11.5,8.2-18.5,10.2
			c-11.6,3.4-31,0.5-37.5-5.6l-2.2-2.1l2.1-1.5c1.7-1.2,1.9-1.8,0.9-2.9C637.5-445.3,627.9-445.5,626.2-443.8z"/>
	</g>
</g>
<g id="MasterLayer_1">
</g>
</svg>
